<?xml version="1.0" encoding="UTF-8"?>
<svg version="1.1" xmlns="http://www.w3.org/2000/svg" width="875" height="254">
<path d="M0 0 C288.75 0 577.5 0 875 0 C875 83.82 875 167.64 875 254 C586.25 254 297.5 254 0 254 C0 170.18 0 86.36 0 0 Z " fill="#FEFEFE" transform="translate(0,0)"/>
<path d="M0 0 C134.31 0 268.62 0 407 0 C407 63.69 407 127.38 407 193 C272.69 193 138.38 193 0 193 C0 129.31 0 65.62 0 0 Z " fill="#020202" transform="translate(30,31)"/>
<path d="M0 0 C288.75 0 577.5 0 875 0 C875 83.82 875 167.64 875 254 C586.25 254 297.5 254 0 254 C0 170.18 0 86.36 0 0 Z M7 9 C7 87.21 7 165.42 7 246 C290.8 246 574.6 246 867 246 C867 167.79 867 89.58 867 9 C583.2 9 299.4 9 7 9 Z " fill="#FFFFFF" transform="translate(0,0)"/>
<path d="M0 0 C283.8 0 567.6 0 860 0 C860 78.21 860 156.42 860 237 C576.2 237 292.4 237 0 237 C0 158.79 0 80.58 0 0 Z M8 8 C8 80.93 8 153.86 8 229 C286.52 229 565.04 229 852 229 C852 156.07 852 83.14 852 8 C573.48 8 294.96 8 8 8 Z " fill="#161616" transform="translate(7,9)"/>
<path d="M0 0 C29 0 29 0 39 3 C43.2755941 7.2755941 46.12624001 10.17606702 46.25 16.3125 C46.16704154 22.07350412 44.26286082 24.67840147 40.3125 28.8125 C39.549375 29.534375 38.78625 30.25625 38 31 C38.886875 31.37125 39.77375 31.7425 40.6875 32.125 C44.40863922 34.23130522 47.21166259 36.07941413 49 40 C49.93702525 46.44425858 49.85908979 52.54404547 46 58 C42.90863726 61.57947264 40.51084818 63.62467094 36 65 C33.17714319 65.16551648 30.45595276 65.23368587 27.63671875 65.1953125 C26.93405884 65.19329834 26.23139893 65.19128418 25.50744629 65.18920898 C22.90073043 65.17880181 20.29410816 65.15087943 17.6875 65.125 C8.9321875 65.063125 8.9321875 65.063125 0 65 C0 43.55 0 22.1 0 0 Z " fill="#040404" transform="translate(661,105)"/>
<path d="M0 0 C4.62 0 9.24 0 14 0 C14.01458252 1.205354 14.02916504 2.41070801 14.04418945 3.65258789 C14.10238325 8.14620884 14.17961448 12.63933971 14.26245117 17.13256836 C14.29560159 19.07324235 14.323664 21.01401046 14.34643555 22.95483398 C14.38016384 25.75284747 14.43248819 28.5500061 14.48828125 31.34765625 C14.49467117 32.2083522 14.5010611 33.06904816 14.50764465 33.95582581 C14.65559789 40.08739796 15.55826841 45.08870465 19.625 49.9375 C23.38133449 51.61796543 26.95771917 51.52694018 31 51 C34.10055661 49.7465835 35.48764946 48.92660829 37.10302734 46.00512695 C38.38602651 41.70669561 38.35768358 37.57024193 38.4140625 33.10546875 C38.43342865 32.15811356 38.4527948 31.21075836 38.4727478 30.23469543 C38.53236371 27.21905423 38.57885705 24.20337448 38.625 21.1875 C38.66319633 19.13865554 38.70224902 17.08982686 38.7421875 15.04101562 C38.83805053 10.02747238 38.92214807 5.01385397 39 0 C43.95 0 48.9 0 54 0 C54.09990454 5.74335834 54.17195122 11.48619565 54.21972656 17.23022461 C54.23967151 19.17855659 54.26683757 21.12683006 54.30175781 23.07495117 C54.76976908 49.88236148 54.76976908 49.88236148 46.875 59.0625 C39.84381553 65.05092406 32.21226326 66.69045156 23.12109375 66.390625 C16.59102064 65.57334426 10.6051789 62.73310054 6 58 C2.26484448 52.25932063 -0.1329405 47.32681806 -0.11352539 40.41503906 C-0.11344986 39.51440735 -0.11337433 38.61377563 -0.11329651 37.68585205 C-0.10813522 36.72217712 -0.10297394 35.7585022 -0.09765625 34.765625 C-0.0962413 33.77246277 -0.09482635 32.77930054 -0.09336853 31.75604248 C-0.08777588 28.58733088 -0.0752247 25.41869021 -0.0625 22.25 C-0.05748405 20.10026144 -0.05292131 17.95052177 -0.04882812 15.80078125 C-0.03780885 10.53382688 -0.02054923 5.26692546 0 0 Z " fill="#080808" transform="translate(598,105)"/>
<path d="M0 0 C14.19 0 28.38 0 43 0 C43 3.96 43 7.92 43 12 C33.43 12 23.86 12 14 12 C14 16.62 14 21.24 14 26 C21.92 26 29.84 26 38 26 C38 29.63 38 33.26 38 37 C30.08 37 22.16 37 14 37 C14 41.95 14 46.9 14 52 C23.57 52 33.14 52 43 52 C43 55.96 43 59.92 43 64 C28.81 64 14.62 64 0 64 C0 42.88 0 21.76 0 0 Z " fill="#000000" transform="translate(719,106)"/>
<path d="M0 0 C6.40359112 2.05829714 9.3682134 6.5523201 13 12 C16.34366594 22.7740347 15.24246765 31.51129332 11 42 C8.4120582 46.56135561 4.98767557 49.36766981 0 51 C-6.52809058 51.63861756 -11.49914066 51.88902321 -17 48 C-23.03447238 42.68391719 -25.698003 37.15030161 -26.2734375 29.2421875 C-26.55763702 20.53371588 -26.50688215 13.24747706 -21 6 C-18.375 3.5 -18.375 3.5 -16 2 C-11.11666638 -1.25555575 -5.71188805 -0.44371017 0 0 Z " fill="#020202" transform="translate(352,112)"/>
<path d="M0 0 C24.8 0 24.8 0 32 7 C37.2144425 15.93904429 37.40340462 26.54561202 34.9375 36.5 C32.33954106 43.96300469 26.79176091 46.60411954 20 50 C13.4 50 6.8 50 0 50 C0 33.5 0 17 0 0 Z " fill="#030303" transform="translate(197,113)"/>
<path d="M0 0 C35.71044816 0 35.71044816 0 45.2421875 8.93359375 C52.87498045 17.90636591 53.66288952 27.66949945 53 39 C51.7237371 46.81981423 48.28900873 54.55197337 42.0078125 59.6015625 C28.26945724 68.46668986 19.58193748 65 0 65 C0 43.55 0 22.1 0 0 Z M8 8 C8 24.5 8 41 8 58 C24.28842586 59.29559207 24.28842586 59.29559207 37 53 C37.78375 52.443125 38.5675 51.88625 39.375 51.3125 C44.76398677 43.64355729 44.79578222 34.02244974 44 25 C42.66024251 18.79634031 39.72202364 13.90541655 34.5 10.25 C25.90300386 5.95150193 18.4550776 8 8 8 Z " fill="#F3F3F3" transform="translate(189,105)"/>
<path d="M0 0 C6.26425124 5.15060657 11.30056483 12.88842351 12.23657227 21.06713867 C12.92988867 32.67987393 12.35696237 42.66750626 5.2734375 52.36328125 C-0.19406306 58.51703189 -6.71348677 61.29119376 -14.796875 62.375 C-22.32785767 62.7153834 -28.978728 61.04291655 -35.0390625 56.45703125 C-41.6388483 50.32063466 -45.61941857 42.04173019 -46.1875 33.0234375 C-46.40517506 21.40503107 -45.35352622 11.77528064 -37.17578125 3.0546875 C-26.50352645 -6.96758714 -12.31988677 -8.36735274 0 0 Z M-32 9 C-38.31656701 17.03504479 -37.89337354 26.29777123 -37 36 C-36.32757231 39.11392689 -35.48785619 41.13449918 -34 44 C-33.319375 45.36125 -33.319375 45.36125 -32.625 46.75 C-30.00507676 50.37758603 -27.24149576 52.58616808 -23 54 C-16.06380893 54.7193087 -10.3451037 54.7409158 -4.61328125 50.46875 C1.38617969 45.00677103 3.34197589 37.45092945 4.2890625 29.60546875 C4.59994599 21.53662921 1.99805401 14.3210683 -3 8 C-8.62443264 2.9242925 -13.30131497 2.51494935 -20.69921875 2.60546875 C-25.84817278 3.22090586 -28.66605974 5.10778201 -32 9 Z " fill="#F6F6F6" transform="translate(363,109)"/>
<path d="M0 0 C15.84 0 31.68 0 48 0 C48 3.96 48 7.92 48 12 C42.39 12 36.78 12 31 12 C31 29.16 31 46.32 31 64 C26.38 64 21.76 64 17 64 C17 46.84 17 29.68 17 12 C11.39 12 5.78 12 0 12 C0 8.04 0 4.08 0 0 Z " fill="#000000" transform="translate(542,106)"/>
<path d="M0 0 C12.87 0 25.74 0 39 0 C39 2.31 39 4.62 39 7 C28.77 7 18.54 7 8 7 C8 13.93 8 20.86 8 28 C17.24 28 26.48 28 36 28 C36 29.98 36 31.96 36 34 C26.76 34 17.52 34 8 34 C8 41.59 8 49.18 8 57 C18.23 57 28.46 57 39 57 C39 59.31 39 61.62 39 64 C26.13 64 13.26 64 0 64 C0 42.88 0 21.76 0 0 Z " fill="#FAFAFA" transform="translate(260,106)"/>
<path d="M0 0 C2.64 0 5.28 0 8 0 C12.8880452 12.75118048 17.33519737 25.62995231 21.69995117 38.56811523 C22.55408127 41.09701022 23.41166585 43.62471394 24.26953125 46.15234375 C24.52990677 46.92819321 24.79028229 47.70404266 25.05854797 48.50340271 C26.04178403 52.02555674 26.04178403 52.02555674 28 55 C34.27 36.85 40.54 18.7 47 0 C49.97 0 52.94 0 56 0 C52.33184314 11.07323937 48.5130163 22.0947516 44.7109375 33.12255859 C43.81515036 35.72130133 42.92103746 38.32061125 42.02832031 40.92041016 C40.73828986 44.67723383 39.4435529 48.43242607 38.1484375 52.1875 C37.74740814 53.35716309 37.34637878 54.52682617 36.93319702 55.73193359 C36.56256134 56.8039502 36.19192566 57.8759668 35.81005859 58.98046875 C35.48379486 59.92817139 35.15753113 60.87587402 34.82138062 61.85229492 C34 64 34 64 33 65 C31.14712498 65.07226502 29.29166122 65.0838122 27.4375 65.0625 C25.91962891 65.04896484 25.91962891 65.04896484 24.37109375 65.03515625 C23.58863281 65.02355469 22.80617188 65.01195312 22 65 C21.61779297 63.90349121 21.23558594 62.80698242 20.84179688 61.67724609 C19.06302573 56.57585872 17.28165073 51.47538226 15.5 46.375 C15.18142029 45.4623941 14.86284058 44.54978821 14.53460693 43.60952759 C10.49965246 32.05565102 6.44822846 20.51175309 2.13476562 9.05810547 C0 3.31587121 0 3.31587121 0 0 Z " fill="#F4F4F4" transform="translate(89,105)"/>
<path d="M0 0 C2.64 0 5.28 0 8 0 C8 21.45 8 42.9 8 65 C5.36 65 2.72 65 0 65 C0 43.55 0 22.1 0 0 Z " fill="#F8F8F8" transform="translate(160,105)"/>
<path d="M0 0 C2.536875 -0.061875 5.07375 -0.12375 7.6875 -0.1875 C8.47729248 -0.21481201 9.26708496 -0.24212402 10.08081055 -0.27026367 C14.60318145 -0.32344113 17.43303549 0.18325747 21 3 C22.42662219 5.85324437 22.31033868 7.83454549 22 11 C20.20006226 13.69990662 18.916227 15.5418865 16 17 C13.28024285 17.07187519 10.59325368 17.0927862 7.875 17.0625 C5.27625 17.041875 2.6775 17.02125 0 17 C0 11.39 0 5.78 0 0 Z " fill="#F7F7F7" transform="translate(675,142)"/>
<path d="M0 0 C13.83380504 -0.41920621 13.83380504 -0.41920621 18 3 C18.85427136 8.38190955 18.85427136 8.38190955 18 11 C15.24988821 13.91278014 13.67546022 14.92081357 9.66796875 15.390625 C6.4453125 15.26041667 3.22265625 15.13020833 0 15 C0 10.05 0 5.1 0 0 Z " fill="#F6F6F6" transform="translate(675,117)"/>
</svg>
